<svg preserveAspectRatio="none" width="100%" height="100%" overflow="visible" style="display: block;" viewBox="0 0 128 199.896" fill="none" xmlns="http://www.w3.org/2000/svg">
<g id="Group">
<path id="Vector" d="M1.51348e-05 3.99996C1.51348e-05 2.93911 0.421435 1.9217 1.17157 1.17156C1.92171 0.421422 2.93912 2.03401e-06 3.99998 2.03401e-06H45.9996C47.0604 2.03401e-06 48.0778 0.421422 48.828 1.17156C49.5781 1.9217 49.9995 2.93911 49.9995 3.99996V199.873H1.51348e-05V3.99996Z" fill="var(--fill-0, #CAD5E2)"/>
<path id="Vector_2" d="M77.9995 58.7776C77.9995 58.0133 78.4209 57.2803 79.1711 56.7398C79.9212 56.1994 80.9386 55.8958 81.9995 55.8958H124C125.06 55.8958 126.078 56.1994 126.828 56.7398C127.578 57.2803 128 58.0133 128 58.7776V199.896H77.9995V58.7776Z" fill="var(--fill-0, #0588F0)"/>
</g>
</svg>
