<svg preserveAspectRatio="none" width="100%" height="100%" overflow="visible" style="display: block;" viewBox="0 0 128.16 219.396" fill="none" xmlns="http://www.w3.org/2000/svg">
<g id="Group">
<path id="Vector" d="M1.51348e-05 3.99996C1.51348e-05 2.9391 0.421435 1.9217 1.17157 1.17156C1.92171 0.421424 2.93912 0 3.99998 0H45.9996C47.0604 0 48.0778 0.421424 48.828 1.17156C49.5781 1.9217 49.9995 2.9391 49.9995 3.99996V219.373H1.51348e-05V3.99996Z" fill="var(--fill-0, #CAD5E2)"/>
<path id="Vector_2" d="M78.1598 28.9328C78.1598 27.9947 78.5812 27.0949 79.3314 26.4316C80.0815 25.7682 81.0989 25.3955 82.1598 25.3955H124.16C125.221 25.3955 126.238 25.7682 126.988 26.4316C127.738 27.0949 128.16 27.9947 128.16 28.9328V219.396H78.1598V28.9328Z" fill="var(--fill-0, #0588F0)"/>
</g>
</svg>
