<svg preserveAspectRatio="none" width="100%" height="100%" overflow="visible" style="display: block;" viewBox="0 0 19.9977 19.9977" fill="none" xmlns="http://www.w3.org/2000/svg">
<g id="Icon">
<path id="Vector" fill-rule="evenodd" clip-rule="evenodd" d="M9.99908 17.9982C12.1206 17.9982 14.1552 17.1554 15.6553 15.6553C17.1554 14.1552 17.9982 12.1206 17.9982 9.99908C17.9982 7.87759 17.1554 5.84299 15.6553 4.34288C14.1552 2.84276 12.1206 2 9.99908 2C7.87759 2 5.84299 2.84276 4.34288 4.34288C2.84276 5.84299 2 7.87759 2 9.99908C2 12.1206 2.84276 14.1552 4.34288 15.6553C5.84299 17.1554 7.87759 17.9982 9.99908 17.9982ZM13.8556 8.19029C13.9135 8.11058 13.9552 8.02026 13.9782 7.92446C14.0012 7.82866 14.0051 7.72928 13.9897 7.63197C13.9743 7.53467 13.9398 7.44135 13.8884 7.35735C13.8369 7.27335 13.7694 7.20032 13.6897 7.14241C13.61 7.0845 13.5196 7.04286 13.4238 7.01986C13.328 6.99687 13.2286 6.99296 13.1313 7.00838C13.034 7.02379 12.9407 7.05822 12.8567 7.10969C12.7727 7.16117 12.6997 7.22869 12.6418 7.30839L9.15918 12.0978L7.27939 10.2181C7.21018 10.1465 7.12741 10.0894 7.0359 10.0501C6.94438 10.0109 6.84597 9.99022 6.7464 9.9894C6.64683 9.98858 6.54809 10.0076 6.45594 10.0454C6.3638 10.0831 6.2801 10.1388 6.20972 10.2093C6.13934 10.2797 6.0837 10.3635 6.04603 10.4556C6.00837 10.5478 5.98944 10.6466 5.99036 10.7462C5.99127 10.8457 6.012 10.9441 6.05135 11.0356C6.09069 11.1271 6.14786 11.2098 6.21951 11.2789L8.71923 13.7786C8.79584 13.8553 8.88817 13.9144 8.98984 13.952C9.09151 13.9895 9.20012 14.0046 9.30817 13.9962C9.41623 13.9877 9.52116 13.9559 9.61575 13.903C9.71034 13.8501 9.79234 13.7773 9.8561 13.6897L13.8556 8.19029Z" fill="var(--fill-0, #171717)"/>
</g>
</svg>
