<svg preserveAspectRatio="none" width="100%" height="100%" overflow="visible" style="display: block;" viewBox="0 0 15.9939 15.9939" fill="none" xmlns="http://www.w3.org/2000/svg">
<g id="Icon" clip-path="url(#clip0_14_276)">
<path id="Vector" d="M12.6618 4.66489V2.66565C12.6618 2.48891 12.5916 2.3194 12.4667 2.19443C12.3417 2.06945 12.1722 1.99924 11.9954 1.99924H3.33206C2.97858 1.99924 2.63957 2.13966 2.38961 2.38961C2.13966 2.63957 1.99924 2.97858 1.99924 3.33206C1.99924 3.68555 2.13966 4.02456 2.38961 4.27451C2.63957 4.52447 2.97858 4.66489 3.33206 4.66489H13.3282C13.505 4.66489 13.6745 4.7351 13.7995 4.86008C13.9245 4.98505 13.9947 5.15456 13.9947 5.3313V7.99695M13.9947 7.99695H11.9954C11.6419 7.99695 11.3029 8.13737 11.053 8.38733C10.803 8.63728 10.6626 8.97629 10.6626 9.32977C10.6626 9.68326 10.803 10.0223 11.053 10.2722C11.3029 10.5222 11.6419 10.6626 11.9954 10.6626H13.9947C14.1714 10.6626 14.3409 10.5924 14.4659 10.4674C14.5909 10.3424 14.6611 10.1729 14.6611 9.99619V8.66336C14.6611 8.48662 14.5909 8.31711 14.4659 8.19214C14.3409 8.06716 14.1714 7.99695 13.9947 7.99695Z" stroke="var(--stroke-0, #009966)" stroke-width="1.33282" stroke-linecap="round" stroke-linejoin="round"/>
<path id="Vector_2" d="M1.99924 3.33206V12.6618C1.99924 13.0153 2.13966 13.3543 2.38961 13.6043C2.63957 13.8542 2.97858 13.9947 3.33206 13.9947H13.3282C13.505 13.9947 13.6745 13.9245 13.7995 13.7995C13.9245 13.6745 13.9947 13.505 13.9947 13.3282V10.6626" stroke="var(--stroke-0, #009966)" stroke-width="1.33282" stroke-linecap="round" stroke-linejoin="round"/>
</g>
<defs>
<clipPath id="clip0_14_276">
<rect width="15.9939" height="15.9939" fill="white"/>
</clipPath>
</defs>
</svg>
