<svg preserveAspectRatio="none" width="100%" height="100%" overflow="visible" style="display: block;" viewBox="0 0 127.999 219" fill="none" xmlns="http://www.w3.org/2000/svg">
<g id="Group">
<path id="Vector" d="M78 66.9788C78 65.918 78.4214 64.9006 79.1716 64.1504C79.9217 63.4003 80.9391 62.9789 82 62.9789H124C125.06 62.9789 126.078 63.4003 126.828 64.1504C127.578 64.9006 127.999 65.918 127.999 66.9788V218.977H78V66.9788Z" fill="var(--fill-0, #0588F0)"/>
<path id="Vector_2" d="M0 5.61538C0 4.12609 0.421424 2.69779 1.17157 1.6447C1.92172 0.591615 2.93913 0 4 0H46C47.0609 0 48.0783 0.591615 48.8284 1.6447C49.5786 2.69779 50 4.12609 50 5.61538V219H0V5.61538Z" fill="var(--fill-0, #CAD5E2)"/>
</g>
</svg>
