<svg preserveAspectRatio="none" width="100%" height="100%" overflow="visible" style="display: block;" viewBox="0 0 12.0004 14.667" fill="none" xmlns="http://www.w3.org/2000/svg">
<g id="elements">
<path id="Vector 7330" d="M8 1.00035V2.00035C8 2.94316 8 3.41456 8.2929 3.70746C8.58579 4.00035 9.05719 4.00035 10 4.00035L11 4.00035" stroke="var(--stroke-0, #0F172B)" stroke-width="1.33333" stroke-linecap="round" stroke-linejoin="round"/>
<path id="Vector 7331" d="M0.666668 10.0004L0.666668 4.66702C0.666668 2.7814 0.666668 1.83859 1.25245 1.2528C1.83824 0.667017 2.78105 0.667017 4.66667 0.667017L7.44772 0.667017C7.72022 0.667017 7.85647 0.667017 7.97898 0.717764C8.1015 0.768511 8.19784 0.864855 8.39053 1.05754L10.9428 3.60983C11.1355 3.80251 11.2318 3.89886 11.2826 4.02137C11.3333 4.14388 11.3333 4.28014 11.3333 4.55264V10.0004C11.3333 11.886 11.3333 12.8288 10.7475 13.4146C10.1618 14.0004 9.21895 14.0004 7.33334 14.0004H4.66667C2.78105 14.0004 1.83824 14.0004 1.25245 13.4146C0.666668 12.8288 0.666668 11.886 0.666668 10.0004Z" stroke="var(--stroke-0, #0F172B)" stroke-width="1.33333" stroke-linecap="round" stroke-linejoin="round"/>
<path id="Vector" d="M3.33334 6.66702L8.66667 6.66702M3.33334 8.66702L8.66667 8.66702M3.33334 10.667H6.11389" stroke="var(--stroke-0, #0F172B)" stroke-width="1.33333" stroke-linecap="round" stroke-linejoin="round"/>
</g>
</svg>
