<svg preserveAspectRatio="none" width="100%" height="100%" overflow="visible" style="display: block;" viewBox="0 0 14.6667 10.6655" fill="none" xmlns="http://www.w3.org/2000/svg">
<g id="elements">
<path id="Ellipse 1574" d="M8.99987 5.33328C8.99987 6.25376 8.25368 6.99995 7.3332 6.99995C6.41273 6.99995 5.66653 6.25376 5.66653 5.33328C5.66653 4.41281 6.41273 3.66661 7.3332 3.66661C8.25368 3.66661 8.99987 4.41281 8.99987 5.33328Z" stroke="var(--stroke-0, #62748E)" stroke-width="1.33333" stroke-linecap="round" stroke-linejoin="round"/>
<path id="Vector" d="M10 0.666667C11.6529 0.666667 12.7936 0.922805 13.4219 1.11755C13.7837 1.22968 14 1.5726 14 1.95137V8.45488C14 9.19826 13.1813 9.75763 12.4508 9.61969C11.8241 9.50134 11.0071 9.40625 10 9.40625C6.83272 9.40625 6.07304 10.6101 1.42987 9.58615C0.981765 9.48734 0.666667 9.08434 0.666667 8.62547V1.94744C0.666667 1.29687 1.28053 0.822443 1.91865 0.949071C6.13113 1.78498 6.94725 0.666667 10 0.666667Z" stroke="var(--stroke-0, #62748E)" stroke-width="1.33333" stroke-linecap="round" stroke-linejoin="round"/>
<path id="Vector_2" d="M0.666667 3.33333C1.96755 3.33333 3.13655 2.27005 3.28601 1.16944M11.667 1C11.667 2.35976 12.8436 3.64599 14 3.64599M14 7.33333C12.734 7.33333 11.5067 8.20683 11.4014 9.39886M3.33366 9.66406C3.33366 8.1913 2.13975 6.9974 0.666992 6.9974" stroke="var(--stroke-0, #62748E)" stroke-width="1.33333" stroke-linecap="round" stroke-linejoin="round"/>
</g>
</svg>
