<svg preserveAspectRatio="none" width="100%" height="100%" overflow="visible" style="display: block;" viewBox="0 0 15.9939 15.9939" fill="none" xmlns="http://www.w3.org/2000/svg">
<g id="Icon" clip-path="url(#clip0_15_1315)">
<path id="Vector" d="M1.37414 7.76504C1.3186 7.91466 1.3186 8.07924 1.37414 8.22886C1.91507 9.54046 2.83326 10.6619 4.01232 11.451C5.19137 12.2402 6.57819 12.6614 7.99695 12.6614C9.41571 12.6614 10.8025 12.2402 11.9816 11.451C13.1606 10.6619 14.0788 9.54046 14.6198 8.22886C14.6753 8.07924 14.6753 7.91466 14.6198 7.76504C14.0788 6.45344 13.1606 5.33199 11.9816 4.54287C10.8025 3.75374 9.41571 3.33247 7.99695 3.33247C6.57819 3.33247 5.19137 3.75374 4.01232 4.54287C2.83326 5.33199 1.91507 6.45344 1.37414 7.76504Z" stroke="var(--stroke-0, #62748E)" stroke-width="1.33282" stroke-linecap="round" stroke-linejoin="round"/>
<path id="Vector_2" d="M7.99695 9.99619C9.1011 9.99619 9.99619 9.1011 9.99619 7.99695C9.99619 6.8928 9.1011 5.99771 7.99695 5.99771C6.8928 5.99771 5.99771 6.8928 5.99771 7.99695C5.99771 9.1011 6.8928 9.99619 7.99695 9.99619Z" stroke="var(--stroke-0, #62748E)" stroke-width="1.33282" stroke-linecap="round" stroke-linejoin="round"/>
</g>
<defs>
<clipPath id="clip0_15_1315">
<rect width="15.9939" height="15.9939" fill="white"/>
</clipPath>
</defs>
</svg>
