<svg preserveAspectRatio="none" width="100%" height="100%" overflow="visible" style="display: block;" viewBox="0 0 15.9939 15.9939" fill="none" xmlns="http://www.w3.org/2000/svg">
<g id="Icon" clip-path="url(#clip0_17_227)">
<path id="Vector" d="M8.14356 1.33283H7.85034C7.49685 1.33283 7.15784 1.47325 6.90789 1.7232C6.65794 1.97315 6.51751 2.31216 6.51751 2.66565V2.7856C6.51727 3.01933 6.45558 3.24889 6.33861 3.45124C6.22164 3.6536 6.05352 3.82163 5.8511 3.9385L5.56454 4.1051C5.36193 4.22208 5.13209 4.28367 4.89813 4.28367C4.66417 4.28367 4.43433 4.22208 4.23172 4.1051L4.13176 4.05179C3.82592 3.87536 3.46257 3.8275 3.12148 3.91871C2.78038 4.00992 2.48942 4.23274 2.31245 4.53827L2.16584 4.79151C1.98942 5.09735 1.94156 5.46069 2.03276 5.80179C2.12397 6.14288 2.3468 6.43385 2.65232 6.61081L2.75228 6.67745C2.95372 6.79375 3.12122 6.96074 3.23813 7.16182C3.35504 7.36291 3.41729 7.59109 3.4187 7.82368V8.16355C3.41963 8.39841 3.35849 8.62934 3.24146 8.83297C3.12443 9.0366 2.95568 9.20568 2.75228 9.32311L2.65232 9.38309C2.3468 9.56005 2.12397 9.85102 2.03276 10.1921C1.94156 10.5332 1.98942 10.8966 2.16584 11.2024L2.31245 11.4556C2.48942 11.7612 2.78038 11.984 3.12148 12.0752C3.46257 12.1664 3.82592 12.1185 4.13176 11.9421L4.23172 11.8888C4.43433 11.7718 4.66417 11.7102 4.89813 11.7102C5.13209 11.7102 5.36193 11.7718 5.56454 11.8888L5.8511 12.0554C6.05352 12.1723 6.22164 12.3403 6.33861 12.5427C6.45558 12.745 6.51727 12.9746 6.51751 13.2083V13.3282C6.51751 13.6817 6.65794 14.0207 6.90789 14.2707C7.15784 14.5207 7.49685 14.6611 7.85034 14.6611H8.14356C8.49705 14.6611 8.83606 14.5207 9.08601 14.2707C9.33596 14.0207 9.47639 13.6817 9.47639 13.3282V13.2083C9.47663 12.9746 9.53832 12.745 9.65529 12.5427C9.77226 12.3403 9.94038 12.1723 10.1428 12.0554L10.4294 11.8888C10.632 11.7718 10.8618 11.7102 11.0958 11.7102C11.3297 11.7102 11.5596 11.7718 11.7622 11.8888L11.8621 11.9421C12.168 12.1185 12.5313 12.1664 12.8724 12.0752C13.2135 11.984 13.5045 11.7612 13.6814 11.4556L13.8281 11.1957C14.0045 10.8899 14.0523 10.5265 13.9611 10.1854C13.8699 9.84436 13.6471 9.55339 13.3416 9.37642L13.2416 9.32311C13.0382 9.20568 12.8695 9.0366 12.7524 8.83297C12.6354 8.62934 12.5743 8.39841 12.5752 8.16355V7.83035C12.5743 7.59549 12.6354 7.36456 12.7524 7.16093C12.8695 6.9573 13.0382 6.78822 13.2416 6.67079L13.3416 6.61081C13.6471 6.43385 13.8699 6.14288 13.9611 5.80179C14.0523 5.46069 14.0045 5.09735 13.8281 4.79151L13.6814 4.53827C13.5045 4.23274 13.2135 4.00992 12.8724 3.91871C12.5313 3.8275 12.168 3.87536 11.8621 4.05179L11.7622 4.1051C11.5596 4.22208 11.3297 4.28367 11.0958 4.28367C10.8618 4.28367 10.632 4.22208 10.4294 4.1051L10.1428 3.9385C9.94038 3.82163 9.77226 3.6536 9.65529 3.45124C9.53832 3.24889 9.47663 3.01933 9.47639 2.7856V2.66565C9.47639 2.31216 9.33596 1.97315 9.08601 1.7232C8.83606 1.47325 8.49705 1.33283 8.14356 1.33283Z" stroke="var(--stroke-0, #0A0A0A)" stroke-width="1.33282" stroke-linecap="round" stroke-linejoin="round"/>
<path id="Vector_2" d="M7.99695 9.99619C9.1011 9.99619 9.99619 9.1011 9.99619 7.99695C9.99619 6.8928 9.1011 5.99771 7.99695 5.99771C6.8928 5.99771 5.99771 6.8928 5.99771 7.99695C5.99771 9.1011 6.8928 9.99619 7.99695 9.99619Z" stroke="var(--stroke-0, #0A0A0A)" stroke-width="1.33282" stroke-linecap="round" stroke-linejoin="round"/>
</g>
<defs>
<clipPath id="clip0_17_227">
<rect width="15.9939" height="15.9939" fill="white"/>
</clipPath>
</defs>
</svg>
