<svg preserveAspectRatio="none" width="100%" height="100%" overflow="visible" style="display: block;" viewBox="0 0 15.9939 15.9939" fill="none" xmlns="http://www.w3.org/2000/svg">
<g id="Icon" clip-path="url(#clip0_17_223)">
<path id="Vector" d="M6.84272 13.9947C6.95971 14.1973 7.12796 14.3655 7.33057 14.4825C7.53317 14.5994 7.763 14.661 7.99695 14.661C8.2309 14.661 8.46073 14.5994 8.66333 14.4825C8.86594 14.3655 9.03419 14.1973 9.15118 13.9947" stroke="var(--stroke-0, #62748E)" stroke-width="1.33282" stroke-linecap="round" stroke-linejoin="round"/>
<path id="Vector_2" d="M2.17384 10.2134C2.08678 10.3089 2.02933 10.4275 2.00847 10.555C1.98761 10.6825 2.00425 10.8132 2.05635 10.9314C2.10846 11.0496 2.19379 11.1501 2.30196 11.2207C2.41013 11.2913 2.53649 11.3289 2.66565 11.329H13.3282C13.4574 11.3291 13.5838 11.2916 13.692 11.2211C13.8003 11.1507 13.8857 11.0503 13.9379 10.9322C13.9902 10.8141 14.007 10.6833 13.9863 10.5558C13.9656 10.4284 13.9083 10.3096 13.8214 10.2141C12.9351 9.30045 11.9954 8.32949 11.9954 5.3313C11.9954 4.27084 11.5742 3.25381 10.8243 2.50395C10.0744 1.75409 9.05741 1.33283 7.99695 1.33283C6.93649 1.33283 5.91946 1.75409 5.1696 2.50395C4.41974 3.25381 3.99848 4.27084 3.99848 5.3313C3.99848 8.32949 3.05817 9.30045 2.17384 10.2134Z" stroke="var(--stroke-0, #62748E)" stroke-width="1.33282" stroke-linecap="round" stroke-linejoin="round"/>
</g>
<defs>
<clipPath id="clip0_17_223">
<rect width="15.9939" height="15.9939" fill="white"/>
</clipPath>
</defs>
</svg>
