<svg preserveAspectRatio="none" width="100%" height="100%" overflow="visible" style="display: block;" viewBox="0 0 19.9977 19.9977" fill="none" xmlns="http://www.w3.org/2000/svg">
<g id="Icon" clip-path="url(#clip0_15_521)">
<path id="Vector" d="M9.99885 10.8321V17.498" stroke="var(--stroke-0, #90A1B9)" stroke-width="1.66648" stroke-linecap="round" stroke-linejoin="round"/>
<path id="Vector_2" d="M3.33295 12.4144C2.71389 11.7819 2.24688 11.0168 1.9673 10.1771C1.68772 9.3374 1.6029 8.44507 1.71927 7.56771C1.83563 6.69036 2.15013 5.85099 2.63894 5.11319C3.12775 4.37539 3.77805 3.7585 4.54059 3.30925C5.30312 2.85999 6.1579 2.59016 7.04016 2.52019C7.92243 2.45022 8.80905 2.58194 9.63287 2.90538C10.4567 3.22882 11.1961 3.7355 11.7951 4.38703C12.3941 5.03856 12.837 5.81786 13.0902 6.6659H14.5817C15.3862 6.66581 16.1694 6.92447 16.8156 7.40368C17.4618 7.88289 17.9367 8.55724 18.1702 9.3271C18.4037 10.097 18.3835 10.9215 18.1124 11.679C17.8413 12.4364 17.3337 13.0866 16.6648 13.5334" stroke="var(--stroke-0, #90A1B9)" stroke-width="1.66648" stroke-linecap="round" stroke-linejoin="round"/>
<path id="Vector_3" d="M6.6659 14.165L9.99885 10.8321L13.3318 14.165" stroke="var(--stroke-0, #90A1B9)" stroke-width="1.66648" stroke-linecap="round" stroke-linejoin="round"/>
</g>
<defs>
<clipPath id="clip0_15_521">
<rect width="19.9977" height="19.9977" fill="white"/>
</clipPath>
</defs>
</svg>
