<svg preserveAspectRatio="none" width="100%" height="100%" overflow="visible" style="display: block;" viewBox="0 0 7.00067 13.0008" fill="none" xmlns="http://www.w3.org/2000/svg">
<g id="Vector">
<mask id="path-1-inside-1_15_526" fill="white">
<path d="M6.85403 9.14664C6.90052 9.19308 6.9374 9.24822 6.96256 9.30892C6.98772 9.36962 7.00067 9.43469 7.00067 9.50039C7.00067 9.5661 6.98772 9.63116 6.96256 9.69186C6.9374 9.75256 6.90052 9.80771 6.85403 9.85414L3.85403 12.8541C3.80759 12.9006 3.75245 12.9375 3.69175 12.9627C3.63105 12.9878 3.56599 13.0008 3.50028 13.0008C3.43457 13.0008 3.36951 12.9878 3.30881 12.9627C3.24811 12.9375 3.19296 12.9006 3.14653 12.8541L0.146528 9.85414C0.0527074 9.76032 -9.88558e-10 9.63307 0 9.50039C9.88558e-10 9.36771 0.0527074 9.24046 0.146528 9.14664C0.240348 9.05282 0.367596 9.00011 0.500278 9.00011C0.63296 9.00011 0.760208 9.05282 0.854028 9.14664L3.50028 11.7935L6.14653 9.14664C6.19296 9.10015 6.24811 9.06327 6.30881 9.03811C6.36951 9.01295 6.43457 9 6.50028 9C6.56599 9 6.63105 9.01295 6.69175 9.03811C6.75245 9.06327 6.80759 9.10015 6.85403 9.14664ZM0.854028 3.85414L3.50028 1.20727L6.14653 3.85414C6.24035 3.94796 6.3676 4.00067 6.50028 4.00067C6.63296 4.00067 6.76021 3.94796 6.85403 3.85414C6.94785 3.76032 7.00056 3.63308 7.00056 3.50039C7.00056 3.36771 6.94785 3.24046 6.85403 3.14664L3.85403 0.146643C3.80759 0.100155 3.75245 0.0632755 3.69175 0.0381134C3.63105 0.0129512 3.56599 0 3.50028 0C3.43457 0 3.36951 0.0129512 3.30881 0.0381134C3.24811 0.0632755 3.19296 0.100155 3.14653 0.146643L0.146528 3.14664C0.0527074 3.24046 -2.61548e-09 3.36771 0 3.50039C2.61548e-09 3.63308 0.0527079 3.76032 0.146528 3.85414C0.240349 3.94796 0.367596 4.00067 0.500278 4.00067C0.63296 4.00067 0.760208 3.94796 0.854028 3.85414Z"/>
</mask>
<path d="M6.85403 9.14664L5.91069 10.0889L5.91174 10.09L6.85403 9.14664ZM6.85403 9.85414L5.91174 8.91081L5.91122 8.91133L6.85403 9.85414ZM3.85403 12.8541L2.91122 11.9113L2.91069 11.9119L3.85403 12.8541ZM3.14653 12.8541L4.08986 11.9119L4.08934 11.9113L3.14653 12.8541ZM0.854028 9.14664L1.79695 8.20395L1.79684 8.20383L0.854028 9.14664ZM3.50028 11.7935L2.55736 12.7362L3.50028 13.6794L4.4432 12.7362L3.50028 11.7935ZM6.14653 9.14664L7.08945 10.0893L7.08986 10.0889L6.14653 9.14664ZM0.854028 3.85414L1.79684 4.79695L1.79695 4.79684L0.854028 3.85414ZM3.50028 1.20727L4.4432 0.264571L3.50028 -0.678573L2.55736 0.264571L3.50028 1.20727ZM6.14653 3.85414L5.20361 4.79684L5.20372 4.79695L6.14653 3.85414ZM6.50028 4.00067V2.66734V4.00067ZM6.85403 3.14664L7.79684 2.20383V2.20383L6.85403 3.14664ZM3.85403 0.146643L2.91069 1.08893L2.91122 1.08945L3.85403 0.146643ZM3.14653 0.146643L4.08934 1.08945L4.08986 1.08893L3.14653 0.146643ZM0.146528 3.14664L-0.796281 2.20383H-0.796281L0.146528 3.14664ZM0 3.50039H-1.33333H0ZM0.500278 4.00067V2.66734V4.00067ZM6.85403 9.14664L5.91174 10.09C5.83426 10.0126 5.7728 9.92068 5.73086 9.81951L6.96256 9.30892L8.19426 8.79834C8.10199 8.57577 7.96677 8.37358 7.79631 8.20331L6.85403 9.14664ZM6.96256 9.30892L5.73086 9.81951C5.68892 9.71833 5.66734 9.60989 5.66734 9.50039H7.00067H8.334C8.334 9.25948 8.28652 9.02091 8.19426 8.79834L6.96256 9.30892ZM7.00067 9.50039H5.66734C5.66734 9.39089 5.68892 9.28245 5.73086 9.18128L6.96256 9.69186L8.19426 10.2024C8.28652 9.97988 8.334 9.74131 8.334 9.50039H7.00067ZM6.96256 9.69186L5.73086 9.18128C5.7728 9.08011 5.83426 8.9882 5.91174 8.91081L6.85403 9.85414L7.79631 10.7975C7.96677 10.6272 8.10199 10.425 8.19426 10.2024L6.96256 9.69186ZM6.85403 9.85414L5.91122 8.91133L2.91122 11.9113L3.85403 12.8541L4.79684 13.797L7.79684 10.797L6.85403 9.85414ZM3.85403 12.8541L2.91069 11.9119C2.98809 11.8344 3.08 11.7729 3.18116 11.731L3.69175 12.9627L4.20234 14.1944C4.4249 14.1021 4.62709 13.9669 4.79736 13.7964L3.85403 12.8541ZM3.69175 12.9627L3.18116 11.731C3.28234 11.689 3.39078 11.6675 3.50028 11.6675V13.0008V14.3341C3.7412 14.3341 3.97976 14.2866 4.20234 14.1944L3.69175 12.9627ZM3.50028 13.0008V11.6675C3.60978 11.6675 3.71822 11.689 3.8194 11.731L3.30881 12.9627L2.79822 14.1944C3.02079 14.2866 3.25936 14.3341 3.50028 14.3341V13.0008ZM3.30881 12.9627L3.8194 11.731C3.92056 11.7729 4.01247 11.8344 4.08986 11.9119L3.14653 12.8541L2.20319 13.7964C2.37346 13.9669 2.57566 14.1021 2.79822 14.1944L3.30881 12.9627ZM3.14653 12.8541L4.08934 11.9113L1.08934 8.91133L0.146528 9.85414L-0.796281 10.797L2.20372 13.797L3.14653 12.8541ZM0.146528 9.85414L1.08934 8.91133C1.24557 9.06756 1.33333 9.27946 1.33333 9.50039H0H-1.33333C-1.33333 9.98669 -1.14015 10.4531 -0.796281 10.797L0.146528 9.85414ZM0 9.50039H1.33333C1.33333 9.72133 1.24557 9.93322 1.08934 10.0895L0.146528 9.14664L-0.796281 8.20383C-1.14015 8.5477 -1.33333 9.01409 -1.33333 9.50039H0ZM0.146528 9.14664L1.08934 10.0895C0.933109 10.2457 0.721219 10.3334 0.500278 10.3334V9.00011V7.66678C0.0139733 7.66678 -0.452413 7.85997 -0.796281 8.20383L0.146528 9.14664ZM0.500278 9.00011V10.3334C0.279337 10.3334 0.0674468 10.2457 -0.0887808 10.0895L0.854028 9.14664L1.79684 8.20383C1.45297 7.85997 0.986583 7.66678 0.500278 7.66678V9.00011ZM0.854028 9.14664L-0.0888923 10.0893L2.55736 12.7362L3.50028 11.7935L4.4432 10.8508L1.79695 8.20395L0.854028 9.14664ZM3.50028 11.7935L4.4432 12.7362L7.08945 10.0893L6.14653 9.14664L5.20361 8.20395L2.55736 10.8508L3.50028 11.7935ZM6.14653 9.14664L7.08986 10.0889C7.01247 10.1664 6.92056 10.2279 6.8194 10.2698L6.30881 9.03811L5.79822 7.80642C5.57566 7.89868 5.37346 8.0339 5.20319 8.20436L6.14653 9.14664ZM6.30881 9.03811L6.8194 10.2698C6.71822 10.3118 6.60978 10.3333 6.50028 10.3333V9V7.66667C6.25936 7.66667 6.02079 7.71415 5.79822 7.80642L6.30881 9.03811ZM6.50028 9V10.3333C6.39078 10.3333 6.28234 10.3118 6.18116 10.2698L6.69175 9.03811L7.20234 7.80642C6.97976 7.71415 6.7412 7.66667 6.50028 7.66667V9ZM6.69175 9.03811L6.18116 10.2698C6.08 10.2279 5.98809 10.1664 5.9107 10.0889L6.85403 9.14664L7.79736 8.20436C7.62709 8.0339 7.4249 7.89868 7.20234 7.80642L6.69175 9.03811ZM0.854028 3.85414L1.79695 4.79684L4.4432 2.14997L3.50028 1.20727L2.55736 0.264571L-0.0888923 2.91145L0.854028 3.85414ZM3.50028 1.20727L2.55736 2.14997L5.20361 4.79684L6.14653 3.85414L7.08945 2.91145L4.4432 0.264571L3.50028 1.20727ZM6.14653 3.85414L5.20372 4.79695C5.54759 5.14082 6.01398 5.334 6.50028 5.334V4.00067V2.66734C6.72122 2.66734 6.93311 2.7551 7.08934 2.91133L6.14653 3.85414ZM6.50028 4.00067V5.334C6.98658 5.334 7.45297 5.14082 7.79684 4.79695L6.85403 3.85414L5.91122 2.91133C6.06745 2.7551 6.27934 2.66734 6.50028 2.66734V4.00067ZM6.85403 3.85414L7.79684 4.79695C8.14071 4.45308 8.33389 3.9867 8.33389 3.50039H7.00056H5.66722C5.66722 3.27945 5.75499 3.06756 5.91122 2.91133L6.85403 3.85414ZM7.00056 3.50039H8.33389C8.33389 3.01409 8.14071 2.5477 7.79684 2.20383L6.85403 3.14664L5.91122 4.08945C5.75499 3.93322 5.66722 3.72133 5.66722 3.50039H7.00056ZM6.85403 3.14664L7.79684 2.20383L4.79684 -0.796166L3.85403 0.146643L2.91122 1.08945L5.91122 4.08945L6.85403 3.14664ZM3.85403 0.146643L4.79736 -0.795641C4.62709 -0.966099 4.4249 -1.10132 4.20234 -1.19358L3.69175 0.0381134L3.18116 1.26981C3.08 1.22787 2.98809 1.16641 2.91069 1.08893L3.85403 0.146643ZM3.69175 0.0381134L4.20234 -1.19358C3.97977 -1.28585 3.7412 -1.33333 3.50028 -1.33333V0V1.33333C3.39077 1.33333 3.28233 1.31175 3.18116 1.26981L3.69175 0.0381134ZM3.50028 0V-1.33333C3.25935 -1.33333 3.02079 -1.28585 2.79822 -1.19358L3.30881 0.0381134L3.8194 1.26981C3.71823 1.31175 3.60979 1.33333 3.50028 1.33333V0ZM3.30881 0.0381134L2.79822 -1.19358C2.57566 -1.10132 2.37346 -0.966099 2.20319 -0.795641L3.14653 0.146643L4.08986 1.08893C4.01247 1.16641 3.92056 1.22787 3.8194 1.26981L3.30881 0.0381134ZM3.14653 0.146643L2.20372 -0.796166L-0.796281 2.20383L0.146528 3.14664L1.08934 4.08945L4.08934 1.08945L3.14653 0.146643ZM0.146528 3.14664L-0.796281 2.20383C-1.14015 2.5477 -1.33333 3.01409 -1.33333 3.50039H0H1.33333C1.33333 3.72133 1.24557 3.93322 1.08934 4.08945L0.146528 3.14664ZM0 3.50039H-1.33333C-1.33333 3.9867 -1.14015 4.45308 -0.796281 4.79695L0.146528 3.85414L1.08934 2.91133C1.24556 3.06756 1.33333 3.27945 1.33333 3.50039H0ZM0.146528 3.85414L-0.796281 4.79695C-0.452413 5.14082 0.013972 5.334 0.500278 5.334V4.00067V2.66734C0.72122 2.66734 0.933111 2.75511 1.08934 2.91133L0.146528 3.85414ZM0.500278 4.00067V5.334C0.986579 5.334 1.45297 5.14082 1.79684 4.79695L0.854028 3.85414L-0.0887808 2.91133C0.0674491 2.7551 0.279341 2.66734 0.500278 2.66734V4.00067Z" fill="var(--stroke-0, #0A0A0A)" mask="url(#path-1-inside-1_15_526)"/>
</g>
</svg>
