<svg preserveAspectRatio="none" width="100%" height="100%" overflow="visible" style="display: block;" viewBox="0 0 15.9939 15.9939" fill="none" xmlns="http://www.w3.org/2000/svg">
<g id="Icon">
<path id="Vector" d="M9.99619 13.9947V8.66336C9.99619 8.48662 9.92598 8.31711 9.801 8.19214C9.67602 8.06716 9.50652 7.99695 9.32977 7.99695H6.66413C6.48738 7.99695 6.31788 8.06716 6.1929 8.19214C6.06792 8.31711 5.99771 8.48662 5.99771 8.66336V13.9947" stroke="var(--stroke-0, #0A0A0A)" stroke-width="1.33282" stroke-linecap="round" stroke-linejoin="round"/>
<path id="Vector_2" d="M1.99924 6.66412C1.99919 6.47024 2.04144 6.27869 2.12305 6.10282C2.20465 5.92695 2.32365 5.771 2.47172 5.64585L7.13661 1.64804C7.37718 1.44472 7.68197 1.33317 7.99695 1.33317C8.31193 1.33317 8.61672 1.44472 8.85729 1.64804L13.5222 5.64585C13.6703 5.771 13.7892 5.92695 13.8709 6.10282C13.9525 6.27869 13.9947 6.47024 13.9947 6.66412V12.6618C13.9947 13.0153 13.8542 13.3543 13.6043 13.6043C13.3543 13.8542 13.0153 13.9947 12.6618 13.9947H3.33206C2.97858 13.9947 2.63957 13.8542 2.38961 13.6043C2.13966 13.3543 1.99924 13.0153 1.99924 12.6618V6.66412Z" stroke="var(--stroke-0, #0A0A0A)" stroke-width="1.33282" stroke-linecap="round" stroke-linejoin="round"/>
</g>
</svg>
