<svg preserveAspectRatio="none" width="100%" height="100%" overflow="visible" style="display: block;" viewBox="0 0 128.407 187.708" fill="none" xmlns="http://www.w3.org/2000/svg">
<g id="Group">
<path id="Vector" d="M1.51348e-05 3.99996C1.51348e-05 2.93911 0.421435 1.9217 1.17157 1.17156C1.92171 0.421422 2.93912 2.03705e-06 3.99998 2.03705e-06H45.9996C47.0604 2.03705e-06 48.0778 0.421422 48.828 1.17156C49.5781 1.9217 49.9995 2.93911 49.9995 3.99996V187.686H1.51348e-05V3.99996Z" fill="var(--fill-0, #CAD5E2)"/>
<path id="Vector_2" d="M78.407 35.033C78.407 34.1513 78.8284 33.3056 79.5786 32.6821C80.3287 32.0586 81.3461 31.7084 82.407 31.7084H124.407C125.468 31.7084 126.485 32.0586 127.235 32.6821C127.986 33.3056 128.407 34.1513 128.407 35.033V187.708H78.407V35.033Z" fill="var(--fill-0, #0588F0)"/>
</g>
</svg>
