<svg preserveAspectRatio="none" width="100%" height="100%" overflow="visible" style="display: block;" viewBox="0 0 15.9939 15.9939" fill="none" xmlns="http://www.w3.org/2000/svg">
<g id="Icon">
<path id="Vector" d="M12.6618 1.99924H3.33206C2.59596 1.99924 1.99924 2.59596 1.99924 3.33206V12.6618C1.99924 13.3979 2.59596 13.9947 3.33206 13.9947H12.6618C13.3979 13.9947 13.9947 13.3979 13.9947 12.6618V3.33206C13.9947 2.59596 13.3979 1.99924 12.6618 1.99924Z" stroke="var(--stroke-0, #90A1B9)" stroke-width="1.33282" stroke-linecap="round" stroke-linejoin="round"/>
<path id="Vector_2" d="M5.99771 7.33054C6.73381 7.33054 7.33054 6.73381 7.33054 5.99771C7.33054 5.26161 6.73381 4.66489 5.99771 4.66489C5.26161 4.66489 4.66489 5.26161 4.66489 5.99771C4.66489 6.73381 5.26161 7.33054 5.99771 7.33054Z" stroke="var(--stroke-0, #90A1B9)" stroke-width="1.33282" stroke-linecap="round" stroke-linejoin="round"/>
<path id="Vector_3" d="M13.9947 9.99619L11.9381 7.93964C11.6882 7.68977 11.3492 7.54941 10.9958 7.54941C10.6424 7.54941 10.3034 7.68977 10.0535 7.93964L3.99848 13.9947" stroke="var(--stroke-0, #90A1B9)" stroke-width="1.33282" stroke-linecap="round" stroke-linejoin="round"/>
</g>
</svg>
