<svg preserveAspectRatio="none" width="100%" height="100%" overflow="visible" style="display: block;" viewBox="0 0 15.9939 15.9939" fill="none" xmlns="http://www.w3.org/2000/svg">
<g id="Icon" clip-path="url(#clip0_15_486)">
<path id="Vector" d="M6.66413 13.3282C6.66407 13.4521 6.69852 13.5735 6.76361 13.6788C6.82871 13.7842 6.92187 13.8693 7.03265 13.9247L8.36548 14.5911C8.4671 14.6419 8.58002 14.6658 8.69351 14.6607C8.807 14.6556 8.9173 14.6215 9.01392 14.5617C9.11053 14.502 9.19027 14.4185 9.24555 14.3193C9.30084 14.22 9.32983 14.1083 9.32977 13.9947V9.32977C9.32992 8.99949 9.4527 8.68102 9.67431 8.43612L14.4878 3.11215C14.5741 3.01656 14.6308 2.89802 14.6511 2.77087C14.6715 2.64371 14.6545 2.5134 14.6024 2.39567C14.5502 2.27794 14.465 2.17785 14.3572 2.1075C14.2493 2.03714 14.1234 1.99954 13.9947 1.99924H1.99924C1.87036 1.99928 1.74426 2.0367 1.63621 2.10695C1.52816 2.17721 1.4428 2.27728 1.39047 2.39506C1.33814 2.51284 1.32109 2.64326 1.34137 2.77054C1.36166 2.89781 1.41841 3.01647 1.50476 3.11215L6.31959 8.43612C6.5412 8.68102 6.66398 8.99949 6.66413 9.32977V13.3282Z" stroke="var(--stroke-0, #62748E)" stroke-width="1.33282" stroke-linecap="round" stroke-linejoin="round"/>
</g>
<defs>
<clipPath id="clip0_15_486">
<rect width="15.9939" height="15.9939" fill="white"/>
</clipPath>
</defs>
</svg>
