<svg preserveAspectRatio="none" width="100%" height="100%" overflow="visible" style="display: block;" viewBox="0 0 15.9939 15.9939" fill="none" xmlns="http://www.w3.org/2000/svg">
<g id="Icon">
<path id="Vector" d="M7.99695 8.66336C8.365 8.66336 8.66336 8.365 8.66336 7.99695C8.66336 7.6289 8.365 7.33054 7.99695 7.33054C7.6289 7.33054 7.33054 7.6289 7.33054 7.99695C7.33054 8.365 7.6289 8.66336 7.99695 8.66336Z" stroke="var(--stroke-0, #90A1B9)" stroke-width="1.33282" stroke-linecap="round" stroke-linejoin="round"/>
<path id="Vector_2" d="M12.6618 8.66336C13.0299 8.66336 13.3283 8.365 13.3283 7.99695C13.3283 7.6289 13.0299 7.33054 12.6618 7.33054C12.2938 7.33054 11.9954 7.6289 11.9954 7.99695C11.9954 8.365 12.2938 8.66336 12.6618 8.66336Z" stroke="var(--stroke-0, #90A1B9)" stroke-width="1.33282" stroke-linecap="round" stroke-linejoin="round"/>
<path id="Vector_3" d="M3.33206 8.66336C3.70011 8.66336 3.99848 8.365 3.99848 7.99695C3.99848 7.6289 3.70011 7.33054 3.33206 7.33054C2.96401 7.33054 2.66565 7.6289 2.66565 7.99695C2.66565 8.365 2.96401 8.66336 3.33206 8.66336Z" stroke="var(--stroke-0, #90A1B9)" stroke-width="1.33282" stroke-linecap="round" stroke-linejoin="round"/>
</g>
</svg>
